# xmcd
#
# Track frame offsets: 
#        150
#        23433
#        33722
#        46369
#        58840
#        68956
#        86756
#        98351
#        117157
#        127329
#        145543
#        163234
#        172573
#        190777
#        204113
#        219914
#        231223
#        242163
#        258566
#        274154
#        287081
#        299745
#        311889
#        332400
#
# Disc length: 4598 seconds
#
# Revision: 0
# Processed by: cddbd v1.5.2PL0 Copyright (c) Steve Scherf et al.
# Submitted via: ExactAudioCopy v0.99pb4
#
DISCID=6311f418
DTITLE=Various Artist - 24 Truckin' Hits
DYEAR=1987
DGENRE=Classic Country
TTITLE0=Red Sovine - Teddy Bear
TTITLE1=Dave Dudley - Six Days On the Road
TTITLE2=Del Reeves - Girl On the Billboard
TTITLE3=Coleman Wilson - Passing Zone Blues
TTITLE4=Dave Dudley - Truck Driving Son of a Gun
TTITLE5=T.H. Music Festival - Convoy
TTITLE6=Willis Brothers - Give me Forty Acres to Turn This Rig Around
TTITLE7=T.H. Music Festival - White Knight
TTITLE8=Del Reeves - Looking at the World Through the Windshield
TTITLE9=Minnie Pearl - Giddyup Go Answer
TTITLE10=Red Sovine - The Gearjammer and the Hobo
TTITLE11=Moore and Napier - Truck Drivin' Queen
TTITLE12=Red Sovine - Giddyup Go
TTITLE13=Tiny Haris - Endless Black Ribbon
TTITLE14=Rod Hart - C.B. Savage
TTITLE15=Jimmy Martin - Truck Drivin' Man
TTITLE16=Jimmy Griggs - Overloaded Diesel
TTITLE17=Lonnie Irving - Pinball Machine
TTITLE18=Red Sovine - Phantom 309
TTITLE19=Red Sovine - Truck Driver's Prayer
TTITLE20=Claude Gray - How Fast Them Trucks Can Go
TTITLE21=Jimmy Martin - Widowmaker
TTITLE22=Red Sovine - Little Joe
TTITLE23=Red Sovine - Freightliner
EXTD=
EXTT0=
EXTT1=
EXTT2=
EXTT3=
EXTT4=
EXTT5=
EXTT6=
EXTT7=
EXTT8=
EXTT9=
EXTT10=
EXTT11=
EXTT12=
EXTT13=
EXTT14=
EXTT15=
EXTT16=
EXTT17=
EXTT18=
EXTT19=
EXTT20=
EXTT21=
EXTT22=
EXTT23=
PLAYORDER=
